<mxfile host="app.diagrams.net" agent="Mozilla/5.0 (Windows NT 10.0; Win64; x64) AppleWebKit/537.36 (KHTML, like Gecko) Chrome/131.0.0.0 Safari/537.36" version="25.0.3">
  <diagram name="Page-1" id="RS9bAhI82YUtMPQsqaav">
    <mxGraphModel dx="2284" dy="780" grid="1" gridSize="10" guides="1" tooltips="1" connect="1" arrows="1" fold="1" page="1" pageScale="1" pageWidth="850" pageHeight="1100" math="0" shadow="0">
      <root>
        <mxCell id="0" />
        <mxCell id="1" parent="0" />
        <mxCell id="yW6DqBCkN1bSvjcmF3ZG-3" value="NGINX" style="rounded=1;whiteSpace=wrap;html=1;" vertex="1" parent="1">
          <mxGeometry x="170" y="80" width="120" height="400" as="geometry" />
        </mxCell>
        <mxCell id="yW6DqBCkN1bSvjcmF3ZG-36" style="edgeStyle=orthogonalEdgeStyle;rounded=0;orthogonalLoop=1;jettySize=auto;html=1;exitX=1;exitY=0.25;exitDx=0;exitDy=0;entryX=0;entryY=0.25;entryDx=0;entryDy=0;" edge="1" parent="1" source="yW6DqBCkN1bSvjcmF3ZG-4" target="yW6DqBCkN1bSvjcmF3ZG-6">
          <mxGeometry relative="1" as="geometry" />
        </mxCell>
        <mxCell id="yW6DqBCkN1bSvjcmF3ZG-4" value="FRONTEND" style="rounded=1;whiteSpace=wrap;html=1;" vertex="1" parent="1">
          <mxGeometry x="520" y="130" width="120" height="100" as="geometry" />
        </mxCell>
        <mxCell id="yW6DqBCkN1bSvjcmF3ZG-15" style="edgeStyle=orthogonalEdgeStyle;rounded=0;orthogonalLoop=1;jettySize=auto;html=1;exitX=1;exitY=0.25;exitDx=0;exitDy=0;entryX=0;entryY=0.25;entryDx=0;entryDy=0;" edge="1" parent="1" source="yW6DqBCkN1bSvjcmF3ZG-5" target="yW6DqBCkN1bSvjcmF3ZG-7">
          <mxGeometry relative="1" as="geometry" />
        </mxCell>
        <mxCell id="yW6DqBCkN1bSvjcmF3ZG-5" value="PREFECT&lt;div&gt;SERVER&lt;/div&gt;" style="rounded=1;whiteSpace=wrap;html=1;" vertex="1" parent="1">
          <mxGeometry x="520" y="330" width="120" height="100" as="geometry" />
        </mxCell>
        <mxCell id="yW6DqBCkN1bSvjcmF3ZG-18" style="edgeStyle=orthogonalEdgeStyle;rounded=0;orthogonalLoop=1;jettySize=auto;html=1;exitX=0;exitY=0.75;exitDx=0;exitDy=0;entryX=1;entryY=0.75;entryDx=0;entryDy=0;" edge="1" parent="1" source="yW6DqBCkN1bSvjcmF3ZG-6" target="yW6DqBCkN1bSvjcmF3ZG-4">
          <mxGeometry relative="1" as="geometry" />
        </mxCell>
        <mxCell id="yW6DqBCkN1bSvjcmF3ZG-26" style="edgeStyle=orthogonalEdgeStyle;rounded=0;orthogonalLoop=1;jettySize=auto;html=1;exitX=0.75;exitY=1;exitDx=0;exitDy=0;entryX=0.75;entryY=0;entryDx=0;entryDy=0;" edge="1" parent="1" source="yW6DqBCkN1bSvjcmF3ZG-6" target="yW6DqBCkN1bSvjcmF3ZG-7">
          <mxGeometry relative="1" as="geometry" />
        </mxCell>
        <mxCell id="yW6DqBCkN1bSvjcmF3ZG-6" value="BACKEND" style="rounded=1;whiteSpace=wrap;html=1;" vertex="1" parent="1">
          <mxGeometry x="700" y="150" width="120" height="60" as="geometry" />
        </mxCell>
        <mxCell id="yW6DqBCkN1bSvjcmF3ZG-16" style="edgeStyle=orthogonalEdgeStyle;rounded=0;orthogonalLoop=1;jettySize=auto;html=1;exitX=0;exitY=0.75;exitDx=0;exitDy=0;entryX=1;entryY=0.75;entryDx=0;entryDy=0;" edge="1" parent="1" source="yW6DqBCkN1bSvjcmF3ZG-7" target="yW6DqBCkN1bSvjcmF3ZG-5">
          <mxGeometry relative="1" as="geometry" />
        </mxCell>
        <mxCell id="yW6DqBCkN1bSvjcmF3ZG-25" style="edgeStyle=orthogonalEdgeStyle;rounded=0;orthogonalLoop=1;jettySize=auto;html=1;exitX=0.25;exitY=0;exitDx=0;exitDy=0;entryX=0.25;entryY=1;entryDx=0;entryDy=0;" edge="1" parent="1" source="yW6DqBCkN1bSvjcmF3ZG-7" target="yW6DqBCkN1bSvjcmF3ZG-6">
          <mxGeometry relative="1" as="geometry" />
        </mxCell>
        <mxCell id="yW6DqBCkN1bSvjcmF3ZG-7" value="PREFECT&lt;div&gt;WORK&lt;span style=&quot;background-color: initial;&quot;&gt;ER&lt;/span&gt;&lt;/div&gt;" style="rounded=1;whiteSpace=wrap;html=1;" vertex="1" parent="1">
          <mxGeometry x="700" y="350" width="120" height="60" as="geometry" />
        </mxCell>
        <mxCell id="yW6DqBCkN1bSvjcmF3ZG-8" value="KEYCLOAK" style="rounded=1;whiteSpace=wrap;html=1;" vertex="1" parent="1">
          <mxGeometry x="360" y="160" width="95" height="240" as="geometry" />
        </mxCell>
        <mxCell id="yW6DqBCkN1bSvjcmF3ZG-11" style="edgeStyle=orthogonalEdgeStyle;rounded=0;orthogonalLoop=1;jettySize=auto;html=1;exitX=0.9;exitY=0.5;exitDx=0;exitDy=0;exitPerimeter=0;entryX=0;entryY=0.5;entryDx=0;entryDy=0;dashed=1;" edge="1" parent="1" source="yW6DqBCkN1bSvjcmF3ZG-9" target="yW6DqBCkN1bSvjcmF3ZG-4">
          <mxGeometry relative="1" as="geometry" />
        </mxCell>
        <mxCell id="yW6DqBCkN1bSvjcmF3ZG-9" value="" style="shape=actor;whiteSpace=wrap;html=1;" vertex="1" parent="1">
          <mxGeometry x="30" y="150" width="50" height="60" as="geometry" />
        </mxCell>
        <mxCell id="yW6DqBCkN1bSvjcmF3ZG-12" style="edgeStyle=orthogonalEdgeStyle;rounded=0;orthogonalLoop=1;jettySize=auto;html=1;exitX=0.9;exitY=0.5;exitDx=0;exitDy=0;exitPerimeter=0;dashed=1;entryX=0;entryY=0.5;entryDx=0;entryDy=0;" edge="1" parent="1" source="yW6DqBCkN1bSvjcmF3ZG-13" target="yW6DqBCkN1bSvjcmF3ZG-5">
          <mxGeometry relative="1" as="geometry">
            <mxPoint x="400" y="360" as="targetPoint" />
          </mxGeometry>
        </mxCell>
        <mxCell id="yW6DqBCkN1bSvjcmF3ZG-13" value="" style="shape=actor;whiteSpace=wrap;html=1;" vertex="1" parent="1">
          <mxGeometry x="30" y="350" width="50" height="60" as="geometry" />
        </mxCell>
        <mxCell id="yW6DqBCkN1bSvjcmF3ZG-21" style="edgeStyle=orthogonalEdgeStyle;rounded=0;orthogonalLoop=1;jettySize=auto;html=1;exitX=0.145;exitY=0;exitDx=0;exitDy=4.35;exitPerimeter=0;entryX=1;entryY=0.75;entryDx=0;entryDy=0;" edge="1" parent="1" source="yW6DqBCkN1bSvjcmF3ZG-14" target="yW6DqBCkN1bSvjcmF3ZG-6">
          <mxGeometry relative="1" as="geometry">
            <Array as="points">
              <mxPoint x="902" y="195" />
            </Array>
          </mxGeometry>
        </mxCell>
        <mxCell id="yW6DqBCkN1bSvjcmF3ZG-14" value="DATABASE" style="shape=cylinder3;whiteSpace=wrap;html=1;boundedLbl=1;backgroundOutline=1;size=15;" vertex="1" parent="1">
          <mxGeometry x="890" y="225" width="80" height="110" as="geometry" />
        </mxCell>
        <mxCell id="yW6DqBCkN1bSvjcmF3ZG-19" style="edgeStyle=orthogonalEdgeStyle;rounded=0;orthogonalLoop=1;jettySize=auto;html=1;exitX=1;exitY=0.25;exitDx=0;exitDy=0;entryX=0.855;entryY=0;entryDx=0;entryDy=4.35;entryPerimeter=0;" edge="1" parent="1" source="yW6DqBCkN1bSvjcmF3ZG-6" target="yW6DqBCkN1bSvjcmF3ZG-14">
          <mxGeometry relative="1" as="geometry" />
        </mxCell>
        <mxCell id="yW6DqBCkN1bSvjcmF3ZG-23" style="edgeStyle=orthogonalEdgeStyle;rounded=0;orthogonalLoop=1;jettySize=auto;html=1;exitX=1;exitY=0.5;exitDx=0;exitDy=0;entryX=0.5;entryY=1;entryDx=0;entryDy=0;entryPerimeter=0;dashed=1;" edge="1" parent="1" source="yW6DqBCkN1bSvjcmF3ZG-7" target="yW6DqBCkN1bSvjcmF3ZG-14">
          <mxGeometry relative="1" as="geometry" />
        </mxCell>
        <mxCell id="yW6DqBCkN1bSvjcmF3ZG-24" value="Only to be implemented&amp;nbsp;&lt;div&gt;if large datasets is to be written&lt;/div&gt;" style="edgeLabel;html=1;align=center;verticalAlign=middle;resizable=0;points=[];" vertex="1" connectable="0" parent="yW6DqBCkN1bSvjcmF3ZG-23">
          <mxGeometry x="-0.0483" y="2" relative="1" as="geometry">
            <mxPoint x="36" y="22" as="offset" />
          </mxGeometry>
        </mxCell>
        <mxCell id="yW6DqBCkN1bSvjcmF3ZG-32" value="&lt;font style=&quot;font-size: 18px;&quot;&gt;System Summary&lt;/font&gt;" style="text;html=1;align=center;verticalAlign=middle;resizable=0;points=[];autosize=1;strokeColor=none;fillColor=none;" vertex="1" parent="1">
          <mxGeometry x="30" y="10" width="170" height="40" as="geometry" />
        </mxCell>
        <mxCell id="yW6DqBCkN1bSvjcmF3ZG-33" value="&lt;font style=&quot;font-size: 18px;&quot;&gt;Network Overview&lt;/font&gt;" style="text;html=1;align=center;verticalAlign=middle;resizable=0;points=[];autosize=1;strokeColor=none;fillColor=none;" vertex="1" parent="1">
          <mxGeometry x="30" y="510" width="170" height="40" as="geometry" />
        </mxCell>
        <mxCell id="yW6DqBCkN1bSvjcmF3ZG-35" value="public" style="rounded=0;whiteSpace=wrap;html=1;verticalAlign=top;" vertex="1" parent="1">
          <mxGeometry x="-15" y="581" width="230" height="170" as="geometry" />
        </mxCell>
        <mxCell id="yW6DqBCkN1bSvjcmF3ZG-37" value="Requests coming from frontend and prefect worker to backend&lt;div&gt;could also be routed through nginx for traceability.&lt;/div&gt;&lt;div&gt;&lt;br&gt;&lt;/div&gt;&lt;div&gt;Prefect worker would need it&#39;s own token for keycloak authentication.&lt;/div&gt;" style="text;html=1;align=center;verticalAlign=middle;resizable=0;points=[];autosize=1;strokeColor=none;fillColor=none;" vertex="1" parent="1">
          <mxGeometry x="360" y="445" width="390" height="70" as="geometry" />
        </mxCell>
        <mxCell id="yW6DqBCkN1bSvjcmF3ZG-39" value="NGINX" style="rounded=1;whiteSpace=wrap;html=1;" vertex="1" parent="1">
          <mxGeometry x="-40" y="601" width="55" height="130" as="geometry" />
        </mxCell>
        <mxCell id="yW6DqBCkN1bSvjcmF3ZG-40" value="&lt;font style=&quot;font-size: 10px;&quot;&gt;FRONTEND&lt;/font&gt;" style="rounded=1;whiteSpace=wrap;html=1;" vertex="1" parent="1">
          <mxGeometry x="125" y="591" width="70" height="70" as="geometry" />
        </mxCell>
        <mxCell id="yW6DqBCkN1bSvjcmF3ZG-41" value="&lt;font style=&quot;font-size: 10px;&quot;&gt;KEYCLOAK&lt;/font&gt;" style="rounded=1;whiteSpace=wrap;html=1;" vertex="1" parent="1">
          <mxGeometry x="45" y="631" width="70" height="70" as="geometry" />
        </mxCell>
        <mxCell id="yW6DqBCkN1bSvjcmF3ZG-42" value="&lt;font style=&quot;font-size: 10px;&quot;&gt;PREFECT&lt;/font&gt;&lt;div&gt;&lt;font style=&quot;font-size: 10px;&quot;&gt;SERVER&lt;/font&gt;&lt;/div&gt;" style="rounded=1;whiteSpace=wrap;html=1;" vertex="1" parent="1">
          <mxGeometry x="125" y="671" width="70" height="70" as="geometry" />
        </mxCell>
        <mxCell id="yW6DqBCkN1bSvjcmF3ZG-43" value="back" style="rounded=0;whiteSpace=wrap;html=1;verticalAlign=top;" vertex="1" parent="1">
          <mxGeometry x="260" y="581" width="230" height="170" as="geometry" />
        </mxCell>
        <mxCell id="yW6DqBCkN1bSvjcmF3ZG-45" value="&lt;font style=&quot;font-size: 10px;&quot;&gt;FRONTEND&lt;/font&gt;" style="rounded=1;whiteSpace=wrap;html=1;" vertex="1" parent="1">
          <mxGeometry x="295" y="631" width="70" height="70" as="geometry" />
        </mxCell>
        <mxCell id="yW6DqBCkN1bSvjcmF3ZG-47" value="&lt;span style=&quot;font-size: 10px;&quot;&gt;BACKEND&lt;/span&gt;" style="rounded=1;whiteSpace=wrap;html=1;" vertex="1" parent="1">
          <mxGeometry x="385" y="631" width="70" height="70" as="geometry" />
        </mxCell>
        <mxCell id="yW6DqBCkN1bSvjcmF3ZG-48" value="prefect" style="rounded=0;whiteSpace=wrap;html=1;verticalAlign=top;" vertex="1" parent="1">
          <mxGeometry x="530" y="581" width="230" height="170" as="geometry" />
        </mxCell>
        <mxCell id="yW6DqBCkN1bSvjcmF3ZG-49" value="&lt;font style=&quot;font-size: 10px;&quot;&gt;PREFECT&lt;/font&gt;&lt;div&gt;&lt;font style=&quot;font-size: 10px;&quot;&gt;SERVER&lt;/font&gt;&lt;/div&gt;" style="rounded=1;whiteSpace=wrap;html=1;" vertex="1" parent="1">
          <mxGeometry x="565" y="631" width="70" height="70" as="geometry" />
        </mxCell>
        <mxCell id="yW6DqBCkN1bSvjcmF3ZG-50" value="&lt;span style=&quot;font-size: 10px;&quot;&gt;PREFECT&lt;/span&gt;&lt;div&gt;&lt;span style=&quot;font-size: 10px;&quot;&gt;WORKER&lt;/span&gt;&lt;/div&gt;" style="rounded=1;whiteSpace=wrap;html=1;" vertex="1" parent="1">
          <mxGeometry x="655" y="631" width="70" height="70" as="geometry" />
        </mxCell>
        <mxCell id="yW6DqBCkN1bSvjcmF3ZG-51" value="data" style="rounded=0;whiteSpace=wrap;html=1;verticalAlign=top;" vertex="1" parent="1">
          <mxGeometry x="800" y="581" width="230" height="170" as="geometry" />
        </mxCell>
        <mxCell id="yW6DqBCkN1bSvjcmF3ZG-52" value="&lt;span style=&quot;font-size: 10px;&quot;&gt;BACKEND&lt;/span&gt;" style="rounded=1;whiteSpace=wrap;html=1;" vertex="1" parent="1">
          <mxGeometry x="825" y="591" width="70" height="70" as="geometry" />
        </mxCell>
        <mxCell id="yW6DqBCkN1bSvjcmF3ZG-53" value="&lt;span style=&quot;font-size: 10px;&quot;&gt;DATABASE&lt;/span&gt;" style="rounded=1;whiteSpace=wrap;html=1;" vertex="1" parent="1">
          <mxGeometry x="940" y="631" width="70" height="70" as="geometry" />
        </mxCell>
        <mxCell id="yW6DqBCkN1bSvjcmF3ZG-55" value="&lt;span style=&quot;font-size: 10px;&quot;&gt;PREFECT&lt;/span&gt;&lt;div&gt;&lt;span style=&quot;font-size: 10px;&quot;&gt;WORKER&lt;/span&gt;&lt;/div&gt;" style="rounded=1;whiteSpace=wrap;html=1;" vertex="1" parent="1">
          <mxGeometry x="825" y="671" width="70" height="70" as="geometry" />
        </mxCell>
        <mxCell id="yW6DqBCkN1bSvjcmF3ZG-56" value="" style="endArrow=none;html=1;strokeWidth=2;rounded=0;dashed=1;dashPattern=1 1;" edge="1" parent="1">
          <mxGeometry width="50" height="50" relative="1" as="geometry">
            <mxPoint x="-15" y="50" as="sourcePoint" />
            <mxPoint x="255" y="50" as="targetPoint" />
          </mxGeometry>
        </mxCell>
        <mxCell id="yW6DqBCkN1bSvjcmF3ZG-58" value="" style="endArrow=none;html=1;strokeWidth=2;rounded=0;dashed=1;dashPattern=1 1;" edge="1" parent="1">
          <mxGeometry width="50" height="50" relative="1" as="geometry">
            <mxPoint x="-15" y="549" as="sourcePoint" />
            <mxPoint x="255" y="549" as="targetPoint" />
          </mxGeometry>
        </mxCell>
      </root>
    </mxGraphModel>
  </diagram>
</mxfile>
